<svg width="81" height="52" viewBox="0 0 81 52" fill="none" xmlns="http://www.w3.org/2000/svg">
<path d="M31.92 7.77H8.47V21.7C9.45 20.3933 10.8967 19.2967 12.81 18.41C14.77 17.5233 16.8467 17.08 19.04 17.08C22.96 17.08 26.1333 17.92 28.56 19.6C31.0333 21.28 32.7833 23.4033 33.81 25.97C34.8833 28.5367 35.42 31.2433 35.42 34.09C35.42 37.5433 34.7433 40.6233 33.39 43.33C32.0833 45.99 30.1 48.09 27.44 49.63C24.8267 51.17 21.6067 51.94 17.78 51.94C12.6933 51.94 8.61 50.68 5.53 48.16C2.45 45.64 0.606667 42.3033 -2.38419e-07 38.15H7.77C8.28333 40.3433 9.42667 42.0933 11.2 43.4C12.9733 44.66 15.19 45.29 17.85 45.29C21.1633 45.29 23.6367 44.2867 25.27 42.28C26.95 40.2733 27.79 37.6133 27.79 34.3C27.79 30.94 26.95 28.3733 25.27 26.6C23.59 24.78 21.1167 23.87 17.85 23.87C15.5633 23.87 13.6267 24.4533 12.04 25.62C10.5 26.74 9.38 28.28 8.68 30.24H1.12V0.770002H31.92V7.77ZM43.727 25.76C43.727 17.6867 45.0804 11.3867 47.787 6.86C50.5404 2.28667 55.2537 -5.96046e-07 61.927 -5.96046e-07C68.6004 -5.96046e-07 73.2904 2.28667 75.997 6.86C78.7504 11.3867 80.127 17.6867 80.127 25.76C80.127 33.9267 78.7504 40.32 75.997 44.94C73.2904 49.5133 68.6004 51.8 61.927 51.8C55.2537 51.8 50.5404 49.5133 47.787 44.94C45.0804 40.32 43.727 33.9267 43.727 25.76ZM72.287 25.76C72.287 21.98 72.0304 18.7833 71.517 16.17C71.0504 13.5567 70.0704 11.4333 68.577 9.8C67.0837 8.12 64.867 7.28 61.927 7.28C58.987 7.28 56.7704 8.12 55.277 9.8C53.7837 11.4333 52.7804 13.5567 52.267 16.17C51.8004 18.7833 51.567 21.98 51.567 25.76C51.567 29.68 51.8004 32.97 52.267 35.63C52.7337 38.29 53.7137 40.4367 55.207 42.07C56.747 43.7033 58.987 44.52 61.927 44.52C64.867 44.52 67.0837 43.7033 68.577 42.07C70.117 40.4367 71.1204 38.29 71.587 35.63C72.0537 32.97 72.287 29.68 72.287 25.76Z" fill="white"/>
</svg>
