<svg width="48" height="48" viewBox="0 0 48 48" fill="none" xmlns="http://www.w3.org/2000/svg">
<path d="M2 13.4583V27.2083C2 35.8502 2 40.1723 4.68125 42.8558C7.36938 45.5417 11.6915 45.5417 20.3333 45.5417H28.3542M2 13.4583L5.135 8.45104C7.10813 5.29771 8.09813 3.72104 9.65188 2.85938C11.2056 2 13.0665 2 16.7881 2H30.8819C34.686 2 36.5858 2 38.1625 2.89146C39.7392 3.78521 40.7154 5.41458 42.6725 8.67563L45.5417 13.4583M2 13.4583H45.5417M45.5417 28.3542V13.4583M23.7708 13.4583V2M32.9375 29.5C32.9375 29.5 27.2083 33.719 27.2083 35.2292C27.2083 36.7394 32.9375 40.9583 32.9375 40.9583M28.3542 35.2292H40.3854C41.7529 35.2292 43.0645 35.7724 44.0314 36.7394C44.9984 37.7064 45.5417 39.0179 45.5417 40.3854C45.5417 41.7529 44.9984 43.0645 44.0314 44.0314C43.0645 44.9984 41.7529 45.5417 40.3854 45.5417H38.6667M19.1875 20.3333H28.3542" stroke="white" stroke-width="4" stroke-linecap="round" stroke-linejoin="round"/>
</svg>
