<svg width="38" height="38" viewBox="0 0 38 38" fill="none" xmlns="http://www.w3.org/2000/svg">
<path d="M5.5415 7.125H8.84999C9.54571 7.125 9.89357 7.125 10.1555 7.31376C10.4173 7.50252 10.5273 7.83253 10.7474 8.49254L11.8748 11.875" stroke="white" stroke-linecap="round"/>
<path d="M27.7082 27.7083H12.7471C11.7808 27.7083 11.2976 27.7083 11.0132 27.4545C10.9044 27.3574 10.8182 27.2378 10.7605 27.104C10.6097 26.7538 10.7625 26.2954 11.068 25.3787C11.4054 24.3667 11.574 23.8607 11.9266 23.52C12.0647 23.3867 12.2212 23.2739 12.3913 23.1851C12.8261 22.9583 13.3594 22.9583 14.4262 22.9583H22.9582" stroke="white" stroke-linecap="round" stroke-linejoin="round"/>
<path d="M23.8039 22.9583H16.0961C14.8169 22.9583 14.1772 22.9583 13.6763 22.628C13.1754 22.2977 12.9234 21.7098 12.4195 20.534L10.5007 16.0568C9.69118 14.1679 9.28644 13.2235 9.73104 12.5493C10.1756 11.875 11.2031 11.875 13.2581 11.875H27.289C29.588 11.875 30.7375 11.875 31.1711 12.6221C31.6047 13.3692 31.0343 14.3673 29.8937 16.3634L27.2768 20.9429C26.7149 21.9263 26.4339 22.418 25.9684 22.6882C25.5028 22.9583 24.9365 22.9583 23.8039 22.9583Z" stroke="white" stroke-linecap="round"/>
<circle cx="26.9168" cy="31.6666" r="1.58333" fill="white"/>
<circle cx="14.2498" cy="31.6666" r="1.58333" fill="white"/>
</svg>
