<svg width="59" height="68" viewBox="0 0 59 68" fill="none" xmlns="http://www.w3.org/2000/svg">
<path d="M49.3958 57.8243C49.3958 59.9393 48.6825 61.9678 47.4127 63.4634C46.1429 64.9589 44.4207 65.7992 42.625 65.7992C40.8292 65.7992 39.1071 64.9589 37.8373 63.4634C36.5675 61.9678 35.8541 59.9393 35.8541 57.8243C35.8541 55.7092 36.5675 53.6807 37.8373 52.1852C39.1071 50.6896 40.8292 49.8494 42.625 49.8494C44.4207 49.8494 46.1429 50.6896 47.4127 52.1852C48.6825 53.6807 49.3958 55.7092 49.3958 57.8243ZM22.3125 57.8243C22.3125 59.9393 21.5991 61.9678 20.3293 63.4634C19.0596 64.9589 17.3374 65.7992 15.5416 65.7992C13.7459 65.7992 12.0237 64.9589 10.7539 63.4634C9.48417 61.9678 8.77081 59.9393 8.77081 57.8243C8.77081 55.7092 9.48417 53.6807 10.7539 52.1852C12.0237 50.6896 13.7459 49.8494 15.5416 49.8494C17.3374 49.8494 19.0596 50.6896 20.3293 52.1852C21.5991 53.6807 22.3125 55.7092 22.3125 57.8243Z" stroke="white" stroke-width="4"/>
<path d="M2 33.8996V49.8494C2 52.832 2 54.3217 2.54437 55.4318C2.90092 56.1591 3.41372 56.7631 4.03125 57.1831C4.97375 57.8242 6.23854 57.8242 8.77083 57.8242M35.8542 57.8242H22.3125M37.2083 51.4443V24.3297C37.2083 19.8191 37.2083 17.5638 36.0167 16.1634C34.8304 14.7598 32.9156 14.7598 29.0833 14.7598H26.375M38.5625 22.7347H43.4402C45.6881 22.7347 46.8121 22.7347 47.7438 23.3568C48.6754 23.9756 49.2523 25.1112 50.4088 27.3825L55.0102 36.4101C55.5844 37.5393 55.8715 38.1071 56.0204 38.7324C56.1667 39.3608 56.1667 40.0179 56.1667 41.3354V49.8494C56.1667 52.832 56.1667 54.3217 55.6223 55.4318C55.2657 56.1591 54.7529 56.7631 54.1354 57.1831C53.1929 57.8242 51.9281 57.8242 49.3958 57.8242M17.8438 20.6612L14.1875 17.7903V10.6129M2 16.3548C2 18.2399 2.31524 20.1065 2.92772 21.8482C3.5402 23.5898 4.43792 25.1722 5.56964 26.5052C6.70135 27.8382 8.04489 28.8955 9.52355 29.6169C11.0022 30.3383 12.587 30.7096 14.1875 30.7096C15.788 30.7096 17.3728 30.3383 18.8515 29.6169C20.3301 28.8955 21.6736 27.8382 22.8054 26.5052C23.9371 25.1722 24.8348 23.5898 25.4473 21.8482C26.0598 20.1065 26.375 18.2399 26.375 16.3548C26.375 12.5477 25.091 8.89647 22.8054 6.20443C20.5198 3.51238 17.4198 2 14.1875 2C10.9552 2 7.85524 3.51238 5.56964 6.20443C3.28404 8.89647 2 12.5477 2 16.3548Z" stroke="white" stroke-width="4" stroke-linecap="round" stroke-linejoin="round"/>
</svg>
