<svg width="34" height="34" viewBox="0 0 34 34" fill="none" xmlns="http://www.w3.org/2000/svg">
<path d="M25.5667 5.76667C25.1711 5.76667 24.7844 5.88397 24.4555 6.10373C24.1266 6.32349 23.8703 6.63585 23.7189 7.0013C23.5675 7.36675 23.5279 7.76889 23.6051 8.15685C23.6823 8.54481 23.8728 8.90118 24.1525 9.18088C24.4322 9.46059 24.7885 9.65107 25.1765 9.72824C25.5645 9.80541 25.9666 9.7658 26.332 9.61443C26.6975 9.46305 27.0098 9.20671 27.2296 8.87781C27.4494 8.54891 27.5667 8.16223 27.5667 7.76667C27.5667 7.23623 27.356 6.72753 26.9809 6.35245C26.6058 5.97738 26.0971 5.76667 25.5667 5.76667ZM33.2333 9.8C33.2006 8.4172 32.9416 7.04909 32.4667 5.75C32.0448 4.63758 31.385 3.63077 30.5333 2.8C29.708 1.94571 28.6993 1.29029 27.5833 0.883333C26.2878 0.393601 24.9181 0.128683 23.5333 0.0999999C21.7667 -9.31323e-08 21.2 0 16.6667 0C12.1333 0 11.5667 -9.31323e-08 9.8 0.0999999C8.41526 0.128683 7.04557 0.393601 5.75 0.883333C4.63663 1.29542 3.62894 1.95014 2.8 2.8C1.94571 3.6253 1.29029 4.63407 0.883333 5.75C0.393601 7.04557 0.128683 8.41526 0.0999999 9.8C-9.31323e-08 11.5667 0 12.1333 0 16.6667C0 21.2 -9.31323e-08 21.7667 0.0999999 23.5333C0.128683 24.9181 0.393601 26.2878 0.883333 27.5833C1.29029 28.6993 1.94571 29.708 2.8 30.5333C3.62894 31.3832 4.63663 32.0379 5.75 32.45C7.04557 32.9397 8.41526 33.2047 9.8 33.2333C11.5667 33.3333 12.1333 33.3333 16.6667 33.3333C21.2 33.3333 21.7667 33.3333 23.5333 33.2333C24.9181 33.2047 26.2878 32.9397 27.5833 32.45C28.6993 32.043 29.708 31.3876 30.5333 30.5333C31.3871 29.7043 32.0472 28.697 32.4667 27.5833C32.9416 26.2843 33.2006 24.9161 33.2333 23.5333C33.2333 21.7667 33.3333 21.2 33.3333 16.6667C33.3333 12.1333 33.3333 11.5667 33.2333 9.8ZM30.2333 23.3333C30.2215 24.3913 30.0299 25.4396 29.6667 26.4333C29.4006 27.1587 28.9731 27.814 28.4167 28.35C27.8757 28.9004 27.2218 29.3269 26.5 29.6C25.5063 29.9632 24.458 30.1549 23.4 30.1667C21.7333 30.25 21.1167 30.2667 16.7333 30.2667C12.35 30.2667 11.7333 30.2667 10.0667 30.1667C8.96809 30.1882 7.87409 30.0191 6.83333 29.6667C6.14365 29.3789 5.51984 28.9536 5 28.4167C4.44682 27.8813 4.02474 27.2253 3.76667 26.5C3.35841 25.4923 3.13267 24.4201 3.1 23.3333C3.1 21.6667 3 21.05 3 16.6667C3 12.2833 3 11.6667 3.1 10C3.10608 8.9183 3.30357 7.8462 3.68333 6.83333C3.97675 6.12985 4.42711 5.50277 5 5C5.50487 4.42532 6.13105 3.96991 6.83333 3.66667C7.849 3.29913 8.91991 3.1075 10 3.1C11.6667 3.1 12.2833 3 16.6667 3C21.05 3 21.6667 3 23.3333 3.1C24.3913 3.11181 25.4396 3.30343 26.4333 3.66667C27.1907 3.94775 27.8705 4.40475 28.4167 5C28.9612 5.51337 29.3877 6.13891 29.6667 6.83333C30.0374 7.84814 30.2292 8.9196 30.2333 10C30.3167 11.6667 30.3333 12.2833 30.3333 16.6667C30.3333 21.05 30.3167 21.6667 30.2333 23.3333ZM16.6667 8.11667C14.9764 8.11996 13.3249 8.62421 11.9211 9.5657C10.5172 10.5072 9.42397 11.8437 8.77939 13.4063C8.13482 14.9689 7.96788 16.6874 8.29966 18.3449C8.63144 20.0023 9.44706 21.5242 10.6435 22.7183C11.8399 23.9124 13.3634 24.725 15.0214 25.0536C16.6795 25.3821 18.3978 25.2118 19.9591 24.5642C21.5205 23.9166 22.8548 22.8207 23.7936 21.4151C24.7323 20.0094 25.2333 18.357 25.2333 16.6667C25.2355 15.5418 25.0153 14.4277 24.5854 13.3883C24.1555 12.3488 23.5243 11.4047 22.7281 10.6101C21.932 9.81549 20.9866 9.18613 19.9463 8.75822C18.9061 8.3303 17.7915 8.11227 16.6667 8.11667ZM16.6667 22.2167C15.569 22.2167 14.4959 21.8912 13.5833 21.2813C12.6706 20.6715 11.9592 19.8047 11.5391 18.7906C11.1191 17.7764 11.0092 16.6605 11.2233 15.5839C11.4375 14.5073 11.966 13.5184 12.7422 12.7422C13.5184 11.966 14.5073 11.4375 15.5839 11.2233C16.6605 11.0092 17.7764 11.1191 18.7906 11.5391C19.8047 11.9592 20.6715 12.6706 21.2813 13.5833C21.8912 14.4959 22.2167 15.569 22.2167 16.6667C22.2167 17.3955 22.0731 18.1172 21.7942 18.7906C21.5153 19.4639 21.1065 20.0757 20.5911 20.5911C20.0757 21.1065 19.4639 21.5153 18.7906 21.7942C18.1172 22.0731 17.3955 22.2167 16.6667 22.2167Z" fill="black"/>
</svg>
