<svg width="15" height="15" viewBox="0 0 15 15" fill="none" xmlns="http://www.w3.org/2000/svg">
<path d="M13.0625 1.25H1.9375C1.75516 1.25 1.5803 1.32243 1.45136 1.45136C1.32243 1.5803 1.25 1.75516 1.25 1.9375V13.0625C1.25 13.2448 1.32243 13.4197 1.45136 13.5486C1.5803 13.6776 1.75516 13.75 1.9375 13.75H7.925V8.90625H6.3V7.03125H7.925V5.625C7.89134 5.29485 7.93032 4.96133 8.0392 4.64784C8.14808 4.33434 8.32423 4.04847 8.55529 3.81026C8.78635 3.57205 9.06673 3.38728 9.37677 3.2689C9.6868 3.15052 10.019 3.10141 10.35 3.125C10.8365 3.12164 11.3227 3.14668 11.8063 3.2V4.8875H10.8125C10.025 4.8875 9.875 5.2625 9.875 5.80625V7.0125H11.75L11.5063 8.8875H9.875V13.75H13.0625C13.1528 13.75 13.2422 13.7322 13.3256 13.6977C13.409 13.6631 13.4848 13.6125 13.5486 13.5486C13.6125 13.4848 13.6631 13.409 13.6977 13.3256C13.7322 13.2422 13.75 13.1528 13.75 13.0625V1.9375C13.75 1.84722 13.7322 1.75782 13.6977 1.67441C13.6631 1.59099 13.6125 1.5152 13.5486 1.45136C13.4848 1.38752 13.409 1.33688 13.3256 1.30233C13.2422 1.26778 13.1528 1.25 13.0625 1.25Z" fill="#8F8F8F"/>
</svg>
