<svg width="37" height="26" viewBox="0 0 37 26" fill="none" xmlns="http://www.w3.org/2000/svg">
<path d="M36.6825 9.08544C36.7649 6.69987 36.2432 4.33214 35.1658 2.20211C34.4348 1.32811 33.4203 0.738292 32.2991 0.535442C27.6617 0.113502 23.005 -0.0589686 18.3491 0.0187751C13.7102 -0.0595734 9.07041 0.107326 4.44912 0.518776C3.53549 0.68497 2.68999 1.11351 2.01579 1.75211C0.515792 3.13544 0.349125 5.50211 0.182458 7.50211C-0.0608194 11.098 -0.0608194 14.7062 0.182458 18.3021C0.231298 19.4277 0.398894 20.545 0.682458 21.6354C0.883417 22.4772 1.29 23.256 1.86579 23.9021C2.54457 24.5745 3.40977 25.0275 4.34912 25.2021C7.94223 25.6467 11.5628 25.8305 15.1825 25.7521C21.0158 25.8354 26.1325 25.7521 32.1825 25.2854C33.1442 25.1195 34.0332 24.6663 34.7325 23.9854C35.1986 23.5182 35.547 22.947 35.7491 22.3188C36.3446 20.4897 36.6373 18.5756 36.6158 16.6521C36.6825 15.7188 36.6825 10.0854 36.6825 9.08544ZM14.5825 17.6521V7.33544L24.4491 12.5188C21.6825 14.0521 18.0325 15.7854 14.5825 17.6521Z" fill="black"/>
</svg>
